<?xml version="1.0" encoding="iso-8859-1"?>
<!-- Generator: Adobe Illustrator 16.0.0, SVG Export Plug-In . SVG Version: 6.00 Build 0)  -->
<!DOCTYPE svg PUBLIC "-//W3C//DTD SVG 1.1//EN" "http://www.w3.org/Graphics/SVG/1.1/DTD/svg11.dtd">
<svg version="1.1" xmlns="http://www.w3.org/2000/svg" xmlns:xlink="http://www.w3.org/1999/xlink" x="0px" y="0px" width="978px"
	 height="600px" viewBox="0 0 978 600" style="enable-background:new 0 0 978 600;" xml:space="preserve">
<g id="&#x56FE;&#x5C42;_6" style="display:none;">
	<rect x="-10" y="-96.553" style="display:inline;fill:#1973A2;" width="1000" height="800"/>
</g>
<g id="&#x56FE;&#x5C42;_2">
	<g id="XMLID_1_">
		<g>
			<path style="fill:#FEF4E3;" d="M552,62.447l5.66,8c-5.101-1.57-8.88-1.41-11.66-0.39L552,62.447z"/>
			<path style="fill:#F8D8B0;" d="M629.17,131.947c4.9,10.58-4.31,17.35-11.13,19.92c-0.021,0-0.04,0.01-0.06,0.02
				c-0.82,0.25-1.381,0.45-1.57,0.52c-0.03,0.01-0.05,0.02-0.08,0.03L629.17,131.947z"/>
			<path style="fill:#F9C5A7;" d="M675.06,187.517l-39.77-2.04C635.29,185.477,656.46,175.917,675.06,187.517z"/>
			<path style="fill:#8DAFB8;" d="M978,263.447v339H697.5l5.5-312c0,0,0,0,0.01-0.01c0.91-0.36,44.431-17.8,85.99,0.01
				c0,0,13.34-30,33.47-36.66c4.53-1.49,9.391-1.81,14.53-0.34l7-0.95v-9.05v-12c0,0,12,11,17,10l12,2c0,0,8-28,34-7l6,2l17-9.81
				l10,16.81l12,2l8,8l13,3L978,263.447z"/>
			<path style="fill:#999293;" d="M601.79,227.837c3.03,1.27,5.91,4.83,8.21,12.11c0,0,27-10.5,21,24.5l11,3l11-27.5l5,14.5l34,18
				l11,18l-5.5,312H496v-345c0,0,43-20,60-28l27,10.5c0,0,9.97-15.79,18.78-12.11H601.79z"/>
			<path style="fill:#9198A2;" d="M496,257.447v345H210l-10-261v-7l12-25.17l12,4.51l-19-26.34c0,0,17-14,23-15
				c0,0,19.05-10.65,47.09-3.41c0,0,0-0.01,0.01,0c9.41,2.42,19.84,6.87,30.9,14.41l51,8v-7l-9-12l-6-0.32l-12-8.68l-1.49-11.71
				h-0.01l-1.5-11.79c0,0-10,11.5-24-24.5c0,0,30-25,63,16c0,0,5.81-0.82,14.98-1.28l0.01,0.01v-0.01H381
				c8.7-0.43,20.42-0.54,33.06,0.66v0.01l28.76,5.26c3.8,1.09,7.54,2.37,11.18,3.85C454,239.947,491,247.447,496,257.447z"/>
			<path style="fill:#F4AB88;" d="M424.92,127.847c4.15,4.06,5.55,9-2.92,13.6l2.91-13.6H424.92z"/>
			<path style="fill:#ECA283;" d="M455,156.447v6.23l-7.36-13.26C451.02,150.097,453.74,152.157,455,156.447z"/>
			<path style="fill:#FADCC3;" d="M546,70.057l-7.67,9.72C538.33,79.777,539.32,72.477,546,70.057z"/>
			<path style="fill:#E9AB8B;" d="M560.29,127.607c-2.01,1.66-4.67,1.2-8.09-4.19C554.64,124.307,557.33,125.657,560.29,127.607z"/>
			<path style="fill:#ECB7A6;" d="M727,203.927v11.52c-1.69-2.59-6.25-4.35-11.54-5.53l11.021-6.18L727,203.927z"/>
			<path style="fill:#D8B194;" d="M661,221.447c0,0,5,17.5-8,18.5L661,221.447z"/>
			<path style="fill:#FED8A5;" d="M575.86,209.917l-27.891,2.29l7.03-1.76h8c-1-12-22-19-22-19v9.78l-10-5.67
				c-3.4-10.38-8.02-18.1-13.31-23.77C518.91,171.577,573.89,162.367,575.86,209.917z"/>
			<path style="fill:#D0C8BA;" d="M957,245.447c20,1,16,13,16,13l-13-3l-8-8l-12-2l-10-16.81l-17,9.81l-6-2c-26-21-34,7-34,7l-12-2
				c-5,1-17-10-17-10v12v9.05l-7,0.95c-5.14-1.47-10-1.15-14.53,0.34l-0.47-1.34l5-13l-8-9c-7-14,16-17,16-17c6-17,20,0,20,0l19-12
				l24,13c-7-17,24-13,24-13l5,24l8-15c7-11,19,8,19,8l-7,8l6,8L957,245.447z"/>
			<path style="fill:#82A7B0;" d="M731,260.447l27.98,1.24c-0.83,0.22-50.011,12.89-55.971,28.75c-0.01,0.01-0.01,0.01-0.01,0.01
				l-11-18C692,272.447,724,255.447,731,260.447z"/>
			<path style="fill:#A3B7B5;" d="M822,252.447l0.47,1.34c-20.13,6.66-33.47,36.66-33.47,36.66c-41.56-17.81-85.08-0.37-85.99-0.01
				c5.96-15.86,55.141-28.53,55.971-28.75c0.01,0,0.01,0,0.01,0l17.01,0.76l11-1v-13l17-2C804,246.447,814,241.447,822,252.447z"/>
			<path style="fill:#FCF1E9;" d="M726.48,203.737l-11.021,6.18c-0.01,0-0.01,0-0.02-0.01c-0.91-0.29-1.87-0.48-2.881-0.58
				c-9.729-1.76-20.56-1.88-20.56-1.88c-4.77-9.79-10.71-16.04-16.94-19.93l1.94-9.27l11.23-10.62l7.3-22.64l0.01-0.01
				c18.72,13.01,27.46,57.47,27.46,57.47L726.48,203.737z"/>
			<path style="fill:#E6B191;" d="M587.92,218.247l-0.67,0.64l-12.25,5.56c0.79-5.35,1.05-10.18,0.86-14.53h0.01L587.92,218.247z"/>
			<path style="fill:#E6B191;" d="M596.39,224.567l5.391,3.27c-8.811-3.68-18.78,12.11-18.78,12.11l-8-15.5l12.25-5.56l0.67-0.64
				l8.91,6.16C596.54,224.507,596.39,224.567,596.39,224.567z"/>
			<path style="fill:#ECC598;" d="M661,221.447l-8,18.5l-11,27.5l-11-3c6-35-21-24.5-21-24.5c-2.3-7.28-5.18-10.84-8.21-12.11h-0.01
				l-4.95-3.43c3.24-1.14,23.33-8.01,25.17-2.96v-9c0,0,19-15.97,24.5-0.24C646.5,212.207,653,220.947,661,221.447z"/>
			<path style="fill:#F5CFAB;" d="M712.56,209.327c-7.38-0.71-17.09,3.77-24.56,12.12c-8.5,9.5-27,0-27,0
				c-8-0.5-14.5-9.24-14.5-9.24c-5.5-15.73-24.5,0.24-24.5,0.24v9c-1.84-5.05-21.93,1.82-25.17,2.96l-8.91-6.16l22.58-21.57
				l10.87-4.91l13.92-6.29l39.77,2.04c6.23,3.89,12.171,10.14,16.94,19.93C692,207.447,702.83,207.567,712.56,209.327z"/>
			<path style="fill:#ECC8AD;" d="M804,246.447l-17,2v13l-11,1l-17.01-0.76c0,0,0,0-0.01,0l-27.98-1.24c-7-5-39,12-39,12l-34-18
				l-5-14.5c13-1,8-18.5,8-18.5s18.5,9.5,27,0c7.47-8.35,17.18-12.83,24.56-12.12c0.98,0.18,1.94,0.37,2.881,0.58
				c0.01,0.01,0.01,0.01,0.02,0.01c5.29,1.18,9.85,2.94,11.54,5.53v-11.52l23,8.52C790,196.447,804,246.447,804,246.447z"/>
			<path style="fill:#F9E3C2;" d="M629.17,131.947l-12.84,20.49c-5.33-4.66-33.33-22-33.33-22c-0.66-12-6-2.61-6-2.61l-6.67,7.92
				c-3.64-3.46-6.99-6.12-10.04-8.14c3.68-3.04,5.18-13.16,5.18-13.16l14.761-7.5c3.479-0.98,5.8-1.92,7.21-2.83c0,0,0,0,0.01,0
				C588.27,104.487,623.9,120.577,629.17,131.947z"/>
			<path style="fill:#F7E0C0;" d="M695.53,144.987l-7.3,22.64L677,178.247l-1.94,9.27c-18.6-11.6-39.77-2.04-39.77-2.04l-4.96-18.37
				c14.24-22.22-6.08-17.18-12.29-15.24c6.82-2.57,16.03-9.34,11.13-19.92l24.33,23.32c0,0-1-15.82,7.5-8.82
				C661,146.447,688.56,149.017,695.53,144.987z"/>
			<path style="fill:#F7D9B5;" d="M630.33,167.107l4.96,18.37l-13.92,6.29c-15.13-57.68-48.37-50.98-48.37-50.98l-15.34-2.22
				c-4.18-19.63-24.05-11.05-24.65-10.79c0.23-0.37,5.971-9.17,19.181-4.37c0,0,0,0.01,0.01,0.01c3.42,5.39,6.08,5.85,8.09,4.19
				c3.05,2.02,6.4,4.68,10.04,8.14l6.67-7.92c0,0,5.34-9.39,6,2.61c0,0,28,17.34,33.33,22c0.03-0.01,0.05-0.02,0.08-0.03
				c0.5-0.14,1.03-0.32,1.57-0.52c0.02-0.01,0.039-0.02,0.06-0.02C624.25,149.927,644.57,144.887,630.33,167.107z"/>
			<path style="fill:#F5BC9E;" d="M621.37,191.767l-10.87,4.91c-1-30.77-45.03-31.23-45.03-31.23
				c-0.029-12.37-39.45-26.58-40.29-26.88l7.82-10.78c0,0,0,0,0.01-0.01c0.601-0.26,20.471-8.84,24.65,10.79l15.34,2.22
				C573,140.787,606.24,134.087,621.37,191.767z"/>
			<path style="fill:#F5C899;" d="M575.86,209.917c0.189,4.35-0.07,9.18-0.86,14.53h-12l-15.06-12.24h0.029L575.86,209.917z"/>
			<path style="fill:#CE8886;" d="M427,193.447l4,14l-16.94,23.38c-12.64-1.2-24.36-1.09-33.06-0.66l6-11.41l28-11.31L427,193.447z"
				/>
			<path style="fill:#E49F86;" d="M575,224.447l8,15.5l-27-10.5c-17,8-60,28-60,28c-5-10-42-17.5-42-17.5
				c-3.64-1.48-7.38-2.76-11.18-3.85L432,215.447h34l24-14.22l45,14.22l12.94-3.24l15.06,12.24H575z"/>
			<path style="fill:#E99279;" d="M455,162.677v19.77c0,0-25,17-28,11l-12,14l-28,11.31l-6,11.41h-0.01c0,0,0,0-0.01,0l-23.43-20.5
				l37.45-22.22c0,0-25,6-17-15c0,0,25-37,44-31c0,0-25,28,0,16c0,0,15.65-10.06,25.64-8.03L455,162.677z"/>
			<path style="fill:#F0A987;" d="M517.69,171.787c5.29,5.67,9.909,13.39,13.31,23.77l10,5.67v-9.78c0,0,21,7,22,19h-8l-7.03,1.76
				h-0.029l-12.94,3.24l-45-14.22l-24,14.22h-34l10.82,20.65c-9.52-2.75-19.39-4.37-28.76-5.27l16.94-23.38l-4-14c3,6,28-11,28-11
				v-19.77C455,162.677,493.42,145.747,517.69,171.787z"/>
			<path style="fill:#F9CEAC;" d="M610.5,196.677l-22.58,21.57l-12.05-8.33h-0.01c-1.971-47.55-56.95-38.34-58.17-38.13
				c-24.271-26.04-62.69-9.11-62.69-9.11v-6.23c-1.26-4.29-3.98-6.35-7.36-7.03l-0.15-0.27c0,0,22.17-28.82,73.51-4.82l4.18-5.76
				c0.84,0.3,40.261,14.51,40.29,26.88C565.47,165.447,609.5,165.907,610.5,196.677z"/>
			<path style="fill:#EFAE89;" d="M552.19,123.407c-13.21-4.8-18.95,4-19.181,4.37c-0.01,0.01-0.01,0.01-0.01,0.01l-7.83,10.78
				c0,0,0,0,0.01,0l-4.18,5.76c-51.34-24-73.51,4.82-73.51,4.82l0.15,0.27c-9.99-2.03-25.64,8.03-25.64,8.03c-25,12,0-16,0-16
				c8.47-4.6,7.07-9.54,2.92-13.6c13.24-6.61-1.92-20.07-1.92-20.07c9.32-18.66,35.81-6.61,44.89-1.76c0,0,2.44,13.09,3.77,15.09
				c1.34,2,21.34,6.74,21.34,6.74l12.5-6.74c0,0,14.17-9.87,19.67,0C525.17,121.107,537.88,100.877,552.19,123.407z"/>
			<path style="fill:#F9C18A;" d="M505.5,121.107l-12.5,6.74c0,0-20-4.74-21.34-6.74c-1.33-2-3.77-15.09-3.77-15.09
				c1.96,1.05,3.11,1.76,3.11,1.76c1.02-2.51,2.62-4.74,4.62-6.73L505.5,121.107z"/>
			<path style="fill:#FCE8B7;" d="M565.47,93.777c0,0,31.38,4.29,21.98,10.34c-0.01,0-0.01,0-0.01,0c-1.41,0.91-3.73,1.85-7.21,2.83
				l-14.761,7.5c0,0-1.5,10.12-5.18,13.16c-2.96-1.95-5.65-3.3-8.09-4.19c-0.01,0-0.01-0.01-0.01-0.01
				c-14.311-22.53-27.021-2.3-27.021-2.3c-5.5-9.87-19.67,0-19.67,0l-29.88-20.06c12.38-12.31,40.04-15.27,40.04-15.27l10,8
				l12.67-14C538.33,79.777,560.44,81.607,565.47,93.777z"/>
			<path style="fill:#FBF6F1;" d="M695.54,144.977l-0.01,0.01c-6.971,4.03-34.53,1.46-34.53,1.46c-8.5-7-7.5,8.82-7.5,8.82
				l-24.33-23.32c-5.27-11.37-40.9-27.46-41.72-27.83c9.399-6.05-21.98-10.34-21.98-10.34c-5.029-12.17-27.14-14-27.14-14l7.67-9.72
				c2.78-1.02,6.56-1.18,11.66,0.39l-5.66-8c4-4,25-3,25-3c33-18,36,11,36,11c33,0,31,26,31,26c18,1,29,38,29,38l12,7
				C688.81,141.438,692.32,142.747,695.54,144.977z"/>
			<path style="fill:#F9D2AC;" d="M440.1,64.467l-0.29,1.44c-3.77-0.82-6.15,4.54-6.15,4.54c-3.33-2-19.6,15.33-19.6,15.33
				L398,70.447c0,0,29-10,32-8L440.1,64.467z"/>
			<path style="fill:#F9D2AC;" d="M471.5,66.947c0,0,46.33-2.84,44.16,18.83c-30.66-22.67-48.66-4-48.66-4
				c-26.67,12-20.67-8.67-20.67-8.67c-2.43-4.86-4.64-6.79-6.52-7.2l0.29-1.44l14.9,2.98C455,67.447,457.5,45.947,471.5,66.947z"/>
			<path style="fill:#FAECD1;" d="M552,62.447l-6,7.61c-6.68,2.42-7.67,9.72-7.67,9.72l-12.67,14l-10-8
				c2.17-21.67-44.16-18.83-44.16-18.83c-14-21-16.5,0.5-16.5,0.5l-14.9-2.98l-10.1-2.02c-3-2-32,8-32,8c4-19,22-22,22-22
				c18-17,31-15,31-15c32-16,60-4,60-4C527,14.447,552,62.447,552,62.447z"/>
			<path style="fill:#F8C988;" d="M515.66,85.777c0,0-27.66,2.96-40.04,15.27c-2,1.99-3.6,4.22-4.62,6.73c0,0-1.15-0.71-3.11-1.76
				c-9.08-4.85-35.57-16.9-44.89,1.76c0,0,15.16,13.46,1.92,20.07h-0.01c-5.17-5.05-14.58-8.74-14.58-8.74
				c-26.67-6-14,11.34-14,11.34c-8,0.66-12.67,17.71-12.67,17.71c-9.72-6.05-6.66,9.11-6.66,9.11l-16.23-3.87l-21.83-5.2
				c8.34-1.86,14.06-2.75,14.06-2.75c2-6-3-13-3-13c-19-13,8-28,8-28c-4-17,40-34,40-34l16.06,15.33c0,0,16.27-17.33,19.6-15.33
				c0,0,2.38-5.36,6.15-4.54c1.88,0.41,4.09,2.34,6.52,7.2c0,0-6,20.67,20.67,8.67C467,81.777,485,63.107,515.66,85.777z"/>
			<path style="fill:#E7A185;" d="M424.91,127.847l-2.91,13.6c-19-6-44,31-44,31c-8,21,17,15,17,15l-37.45,22.22l-1.25-1.09
				c-1.7-2.94-4.63-5.36-8.4-7.35l-0.01-0.01c-9.07-8.79,12.44-45.95,12.44-45.95l0.44-1.87l16.23,3.87c0,0-3.06-15.16,6.66-9.11
				c0,0,4.67-17.05,12.67-17.71c0,0-12.67-17.34,14-11.34C410.33,119.107,419.74,122.797,424.91,127.847z"/>
			<path style="fill:#E59983;" d="M360.77,153.397l-0.44,1.87c0,0-21.51,37.16-12.44,45.95c-10.2-5.41-26.51-7.67-40.91-8.55
				c0.32-0.78,14.91-36.71,27.47-43.43c1.56-0.37,3.06-0.72,4.48-1.04h0.01L360.77,153.397z"/>
			<path style="fill:#CD9387;" d="M277,192.447c-9.87-23.26,31.92-37.08,57.45-43.21c-12.56,6.72-27.15,42.65-27.47,43.43
				C290.79,191.688,277,192.447,277,192.447z"/>
			<path style="fill:#E59582;" d="M357.55,209.667l23.43,20.5c-9.17,0.46-14.98,1.28-14.98,1.28c-33-41-63-16-63-16
				c14,36,24,24.5,24,24.5l1.5,11.79l-32.5-9.29l-36.84-23.69l-0.07-0.04l-5.09-3.27h-0.92l-26.11-14.22
				c8.75-1.31,24.03,0.22,24.03,0.22l26-9l29.98,0.23c0,0,0,0,0-0.01c14.4,0.88,30.71,3.14,40.91,8.55l0.01,0.01l8.4,7.35
				c0.26,0.46,0.5,0.94,0.7,1.42L357.55,209.667z"/>
			<path style="fill:#D39F91;" d="M357,284.447v7l-51-8c-11.06-7.54-21.49-11.99-30.9-14.41c-0.01-0.01-0.01,0-0.01,0l-30.09-9.5
				l-27-12.54l-17,12.54l-21-5.09l-19-7l-16.97-13h-0.36l14.33-9l11,1v-11h10l11,6l9-6h27h27.08l6.01,3.27l0.07,0.04l36.84,23.69
				l32.5,9.29h0.01l1.49,11.71l12,8.68l6,0.32L357,284.447z"/>
			<path style="fill:#9DA7B2;" d="M253.08,215.447H226h-27l-9,6l-11-6h-10v11l-11-1l-14.33,9c5.44-36.38-52.67-21-52.67-21l-35-6
				c43-49,74-14,74-14c7-2,25,5,25,5c39-15,66,6,66,6c0-1.72,2.46-2.7,5.97-3.22L253.08,215.447z"/>
			<path style="fill:#A6878C;" d="M47.25,272.377c21.23,2.96-1.25,31.07-1.25,31.07c0,23-31,41-31,41l13,27l-26,25v-58l12-35
				c-24-34,24-31,24-31L47.25,272.377z"/>
			<path style="fill:#7D8A9B;" d="M200,341.447l10,261H2v-206l26-25l-13-27c0,0,31-18,31-41c0,0,22.48-28.11,1.25-31.07h0.44
				c0,0,21.31-32.97,60.31-8.97c0,0,46.07,13.02,36.03,40.02l12.97,5.85c0,0,21-9.83,15,18.17L200,341.447z"/>
			<path style="fill:#BF8B89;" d="M245,259.537l30.09,9.5c-28.04-7.24-47.09,3.41-47.09,3.41c-6,1-23,15-23,15l19,26.34l-12-4.51
				l-12,25.17v7l-28-14c6-28-15-18.17-15-18.17l-12.97-5.85c10.04-27-36.03-40.02-36.03-40.02c-39-24-60.31,8.97-60.31,8.97h-0.44
				c-2.46-0.34-5.51-0.35-9.25,0.07c9.91-45.4,36.85-34.93,45.95-29.89c1.71,1.1,2.83,1.76,3.02,1.87c0.01,0,0.01,0.01,0.01,0.01
				c0.01,0.01,0.02,0.01,0.02,0.01c3-11,54,0,54,0c1.36-3.71,2.23-7.03,2.67-10h0.36l16.97,13l19,7l21,5.09l17-12.54L245,259.537z"
				/>
			<path style="fill:#B1999D;" d="M91,213.447c0,0,58.11-15.38,52.67,21c-0.44,2.97-1.31,6.29-2.67,10c0,0-51-11-54,0
				c0,0-0.01,0-0.02-0.01c0,0,0-0.01-0.01-0.01c-0.18-0.13-1.27-0.9-3.02-1.87c-8.58-5.51-32.05-21.99-27.95-35.11L91,213.447z"/>
			<path style="fill:#BA8C89;" d="M83.95,242.557c-9.1-5.04-36.04-15.51-45.95,29.89c0,0-48-3-24,31l-12,35v-143c12-3,54,12,54,12
				C51.9,220.567,75.37,237.047,83.95,242.557z"/>
		</g>
		<g>
		</g>
	</g>
</g>
<g id="&#x56FE;&#x5C42;_3" style="display:none;">
	<g id="XMLID_2_" style="display:inline;">
		<g>
			<path style="fill:#DCBCA8;" d="M978,489.047v114.4H2v-105.68c1.13,0.029,25.11,0.83,29.66,7.34c0,0,58.01-27.33,71.34-16
				c0,0,19.33-38,108-26.67c0,0,49.33-19.23,98.67-7.28c0,0,92-27.28,102,0l13.99,18.91c0,0,17.34-14.3,50-5.63
				c0,0,131,37.99,150.67,18c0,0,143.33,12.66,195.33,2.66s76.67-4,86,2.67C907.66,491.768,960.03,468.367,978,489.047z"/>
			<path style="fill:#9AABAD;" d="M751.96,428.287c-6.59,2.561-13.33,1.73-19.83-1.12C738.73,427.268,745.37,427.617,751.96,428.287
				z"/>
			<path style="fill:#7B9FAF;" d="M732.13,427.167c-55.57-0.899-108.47,15.87-108.47,15.87c-16.66-30.74-52.33,4.73-52.33,4.73
				c-7,12-33,4-33,4c-34-10-62.67,16.67-62.67,16.67c-32.66-8.67-50,5.63-50,5.63l-13.99-18.91c-10-27.28-102,0-102,0
				c-49.34-11.95-98.67,7.28-98.67,7.28c-88.67-11.33-108,26.67-108,26.67c-13.33-11.33-71.34,16-71.34,16
				c-4.55-6.51-28.53-7.311-29.66-7.34v-82.721c0.69-1.05,10.75-15.89,15.46,4.061c0,0,26.21,42,40.21,35.33
				c0,0,23.72-3.99,15.86-34.66c-7.86-30.67,15.46-24,21.47,1.33c0,0,14,31.43,38.67,8.72c0,0,46.66,27.95,74.66,11.95
				c0,0,75.34,22.28,72.67-14.53c0,0,2.74-14.28-2.34-23.359c0,0,7.67-28.11,13.67-27.45c0,0,5.32-23.271-13.67-13.3
				c0,0-5.58-20.021,3.08-10.61c0,0,11.94-1.62,21.3-1.42c2.74,0.89,5.83,1.43,9.29,1.42c0,0,22.67,20.26,16.67,24.42
				c0,0-36-26.51-15.33,11.49c0,0,16.68-10.84,16.34,18.25c0,0,6.32,0.77,26.32-6.74c0,0,30.67,13.83,40-10.17l-25.79-17.33
				c0,0-10.87-26.61,25.79-9.31c0,0,24-35.36-10.66-35.36c0,0-26.67-4-30.67,0c0,0,11.97-39.32,27.99-24.33
				c9.3,8.28,27.34,9.67,27.34,9.67c-8.67,12,4.66,24.67,4.66,24.67c5.34,60.66,57.34,16.66,57.34,16.66
				c3.52,8.56,31.34,0.02,44.78-4.68c0,0,16.39,16.68,32.89,8.18c0,0,22,60.5,93,6c0,0,37.5-31,46.5,18.5c0,0,0.45,0.78,1.28,2.14
				C695.51,392.308,712.74,418.688,732.13,427.167z"/>
			<path style="fill:#9BAFB3;" d="M817,449.768c0,0,53.28,22-42.36,28.67c0,0-172.979-8-148.31,8c-19.67,19.99-150.67-18-150.67-18
				s28.67-26.67,62.67-16.67c0,0,26,8,33-4c0,0,35.67-35.471,52.33-4.73c0,0,52.899-16.77,108.47-15.87
				c6.5,2.851,13.24,3.681,19.83,1.12C775.51,430.647,798.48,436.928,817,449.768z"/>
			<path style="fill:#779BAB;" d="M978,464.757v24.29c-17.97-20.68-70.34,2.721-70.34,2.721c-9.33-6.67-34-12.67-86-2.67
				s-195.33-2.66-195.33-2.66c-24.67-16,148.31-8,148.31-8c95.641-6.67,42.36-28.67,42.36-28.67
				c-18.52-12.84-41.49-19.12-65.04-21.48c5.07-1.96,10.05-5.93,14.75-12.53c13.73,9.33,46.28,3.341,46.28,3.341
				c1.12-0.28,2.34-0.54,3.64-0.771c0.01,0,0.01,0,0.021,0c4.14,0.43,8.09-0.12,11.8-1.37c25.3-1.81,61.88,0.8,61.88,0.8
				c2.09-1.29,3.99-2.38,5.72-3.27h0.01c5.521-0.34,9.57-1.58,12.511-3.43c8.72,1.67,1.76,18.77,1.76,18.77
				c-20,21.39,21.33,29.93,21.33,29.93C951.57,449.808,971.71,460.737,978,464.757z"/>
			<path style="fill:#8699A3;" d="M978,375.407v89.35c-6.29-4.02-26.43-14.949-46.34-5c0,0-41.33-8.54-21.33-29.93
				c0,0,6.96-17.1-1.76-18.77c14.62-9.141,1.37-32.99,1.37-32.99c4.25-0.67,8.06-1.53,11.06-2.62c0,0,22.5,15,31,24.5
				C952,399.947,965.51,370.688,978,375.407z"/>
			<path style="fill:#4C8DAA;" d="M978,263.447v111.96c-12.49-4.72-26,24.54-26,24.54c-8.5-9.5-31-24.5-31-24.5
				c-3,1.09-6.81,1.95-11.06,2.62c-2.351,0.38-4.83,0.689-7.381,0.97c-2.819,0.29-5.729,0.54-8.609,0.73
				c-3.521-5.82,18.55-33.67,18.55-33.67c31.5-31.351-40.84-65.65-40.84-65.65c-0.101-0.1-0.19-0.2-0.29-0.29
				c-10.601-10.96,14.29-6.37,14.29-6.37s16.34,10.16,26.34-2.84s13.5,1.87,16,2.94c2.5,1.06,18.38-9.89,20.99-12.1l8.68-7.34
				C971.67,252.447,978,263.447,978,263.447z"/>
			<path style="fill:#78A4B2;" d="M957.67,254.447l-8.68,7.34c0,0-42-40-56,0l-7.33,12c0,0-24.891-4.59-14.29,6.37
				c-3.23-3.11-32.71-30.04-63.311-7c6.86-7.91,13.61-18.04,13.61-18.04l19.33-2l-1.33-8l2-14c24,12,20.66,14.66,20.66,14.66
				l7.34-3.33c3.33-12,15.33-14.01,15.33-14.01c5.33,0.65,27.33,12.01,27.33,12.01c-0.66-8,18-12,18-12
				c5.34-0.67,12.67,21.33,12.67,21.33C951.66,239.777,957.67,254.447,957.67,254.447z"/>
			<path style="fill:#6699AE;" d="M948.99,261.787c-2.61,2.21-18.49,13.16-20.99,12.1c-2.5-1.07-6-15.94-16-2.94
				s-26.34,2.84-26.34,2.84l7.33-12C906.99,221.787,948.99,261.787,948.99,261.787z"/>
			<path style="fill:#6B97AA;" d="M871.66,280.447c0,0,72.34,34.3,40.84,65.65c0,0-22.07,27.85-18.55,33.67
				c-15.69,1.05-30.95,0.68-30.95,0.68c1-2.8-3.19-5.52-8.59-7.77l-0.01-0.011c-8.101-3.38-18.9-5.72-18.9-5.72
				c-43.5,0-19.5-23.5-19.5-23.5c53-15.5,22.25-40.25,3.5-21.5c-34.47,34.47-32-18.5-32-18.5c-41-24-83.82-1.96-83.82-1.96
				c-6.71-3.25-12.02-5.04-12.02-5.04c2.54-2.8,8.27-4.99,15.83-6.7l0.01,0.01c0,0,0-0.01,0.01-0.01l0.01-0.01
				c30.221-6.81,89.471-5.95,89.471-5.95c0.62-0.74,1.25-1.45,1.88-2.14c2.6-1.42,5.91-4.7,9.189-8.49
				c30.601-23.04,60.08,3.89,63.311,7C871.47,280.247,871.56,280.347,871.66,280.447z"/>
			<path style="fill:#8A98A3;" d="M909.94,378.067c0,0,13.25,23.85-1.37,32.99c-2.59-0.511-6.561,0.35-12.511,3.43h-0.01
				c-1.729,0.89-3.63,1.979-5.72,3.27c0,0-36.58-2.609-61.88-0.8c21.02-7.069,34.55-36.51,34.55-36.51s15.26,0.37,30.95-0.68
				c0.91,1.5,3.51,1.54,8.609-0.73C905.11,378.757,907.59,378.447,909.94,378.067z"/>
			<path style="fill:#7996A5;" d="M854.41,372.678c5.399,2.25,9.59,4.97,8.59,7.77c0,0-13.53,29.44-34.55,36.51
				c-4.351,0.32-8.36,0.76-11.8,1.37c-0.011,0-0.011,0-0.021,0c-1.3,0.23-2.52,0.49-3.64,0.771c0,0-32.55,5.989-46.28-3.341
				c2.75-3.84,5.4-8.569,7.93-14.31c0,0-6.64-32.66,15.36-31.58c4.08,0.2,6.87-0.1,8.61-0.74c14.18-1.029,42.239-2.16,55.79,3.54
				L854.41,372.678z"/>
			<path style="fill:#7490A0;" d="M835.5,366.947c0,0,10.8,2.34,18.9,5.72c-13.551-5.7-41.61-4.569-55.79-3.54
				c7.62-2.819-5.08-12.229-18.11-14.68c0,0-67.8,4.44-54-13.5c13.78-17.91-7.96-32.26-22.82-39.46c0,0,42.82-22.04,83.82,1.96
				c0,0-2.47,52.97,32,18.5c18.75-18.75,49.5,6-3.5,21.5C816,343.447,792,366.947,835.5,366.947z"/>
			<path style="fill:#A4B8B6;" d="M811,243.117l10.67,12c0,0-32,21.34-26.67,26.67c0.89,0.89,2.24,0.74,3.87-0.14
				c-0.63,0.69-1.26,1.4-1.88,2.14c0,0-59.25-0.86-89.471,5.95c0.811-1.09,30.511-40.54,67.12-29.91c1.521,0.75,2.36,1.29,2.36,1.29
				l8-2c-8.67-20,21.33-11.34,21.33-11.34L811,243.117z"/>
			<path style="fill:#A4B7B6;" d="M821.67,255.117c0,0-6.75,10.13-13.61,18.04c-3.06,2.3-6.14,5.1-9.189,8.49
				c-1.63,0.88-2.98,1.03-3.87,0.14C789.67,276.457,821.67,255.117,821.67,255.117z"/>
			<path style="fill:#A4B7B6;" d="M798.87,281.647c3.05-3.39,6.13-6.19,9.189-8.49C804.78,276.947,801.47,280.227,798.87,281.647z"
				/>
			<path style="fill:#9A959C;" d="M780.5,354.447c13.03,2.45,25.73,11.86,18.11,14.68c-5.261,0.37-8.61,0.74-8.61,0.74
				c-22-1.08-15.36,31.58-15.36,31.58c-2.529,5.74-5.18,10.47-7.93,14.31c-4.7,6.601-9.68,10.57-14.75,12.53
				c-6.59-0.67-13.229-1.02-19.83-1.12c-19.39-8.479-36.62-34.859-41.35-42.58c-7.73-42.37,35.72-43.64,35.72-43.64
				C712.7,358.888,780.5,354.447,780.5,354.447z"/>
			<path style="fill:#86A9AF;" d="M774.64,259.827c-36.609-10.63-66.31,28.82-67.12,29.91l-0.01,0.01c-0.01,0-0.01,0-0.02,0
				l-15.16-12.63c18-22.67,42.67-14.67,42.67-14.67C752.03,250.737,768.64,256.877,774.64,259.827z"/>
			<path style="fill:#9095A0;" d="M703.68,301.487c14.86,7.2,36.601,21.55,22.82,39.46c0,0-43.45,1.27-35.72,43.64
				c-0.83-1.359-1.28-2.14-1.28-2.14c-9-49.5-46.5-18.5-46.5-18.5c-71,54.5-93-6-93-6c-16.5,8.5-32.89-8.18-32.89-8.18
				c4.37-1.53,7.22-2.65,7.22-2.65c19.33-20.67,81.33-6.67,81.33-6.67c88.67-9.33,30.67-41.33,30.67-41.33
				c-14-6.67-21.34-28.89-21.34-28.89c3.37-3.85,7.06-5.2,10.77-4.95l-0.1,0.51l2.51-0.13c12.35,2.97,24.16,21.46,24.16,21.46
				c10-8,39.33,9.33,39.33,9.33S696.97,298.237,703.68,301.487z"/>
			<path style="fill:#B49B9C;" d="M692.33,277.117l15.16,12.63c-7.561,1.71-13.29,3.9-15.83,6.7c0,0-29.33-17.33-39.33-9.33
				c0,0-11.811-18.49-24.16-21.46l3.83-0.21h9l16-25.83l1.33,15.5c8-1.34,20,16,20,16L692.33,277.117z"/>
			<path style="fill:#BB8E8C;" d="M636.33,299.117c0,0,58,32-30.67,41.33c0,0-62-14-81.33,6.67c0,0-2.85,1.12-7.22,2.65
				c-13.44,4.699-41.26,13.239-44.78,4.68c-42.67-9.33-6-45.17-6-45.17c-18.67-16.5,20.66-38.82,20.66-38.82
				c12.67-14.67-58.66-13.34-58.66-13.34s-13.34-8.67-42.67,5.33c0,0-42.66-12.67,15.34-29.33c34-16,55.33,14,55.33,14
				c16.67-12.67,39.33,11.33,39.33,11.33c14,2,26-8,26-8l6.01-2.64v0.01c32.01,2.69,87.32,22.41,87.32,22.41
				S622.33,292.447,636.33,299.117z"/>
			<path style="fill:#C9988D;" d="M612.33,241.117c20.67-10.67,18,0.67,18,0.67l-4.57,23.49c-3.71-0.25-7.399,1.1-10.77,4.95
				c0,0-55.311-19.72-87.32-22.41v-0.01l21.33-9.36c12.66-18,38,0,38,0c22-23.33,19.33-4,19.33-4l3.33,1.34L612.33,241.117z"/>
			<path style="fill:#AB9191;" d="M428.33,257.117c0,0,71.33-1.33,58.66,13.34c0,0-39.33,22.32-20.66,38.82c0,0-36.67,35.84,6,45.17
				c0,0-52,44-57.34-16.66c0,0-13.33-12.67-4.66-24.67c0,0-18.04-1.39-27.34-9.67c-3.6-3.2-5.89-7.43-5.33-13
				c0,0-4-27.33,41.33-21.33C418.99,269.117,435.66,270.447,428.33,257.117z"/>
			<path style="fill:#A99395;" d="M428.33,257.117c7.33,13.33-9.34,12-9.34,12c-45.33-6-41.33,21.33-41.33,21.33
				c-0.56,5.57,1.73,9.8,5.33,13c-16.02-14.99-27.99,24.33-27.99,24.33c4-4,30.67,0,30.67,0c34.66,0,10.66,35.36,10.66,35.36
				c-36.66-17.301-25.79,9.31-25.79,9.31l25.79,17.33c-9.33,24-40,10.17-40,10.17c-20,7.51-26.32,6.74-26.32,6.74
				c0.34-29.09-16.34-18.25-16.34-18.25c-20.67-38,15.33-11.49,15.33-11.49c6-4.16-16.67-24.42-16.67-24.42
				c-1.96-0.95-5.4-1.34-9.29-1.42c-12.06-3.94-17.37-14.67-17.37-14.67c-32.96-34.08,20.21-21.33,20.21-21.33
				c6.22,4.67,4.45-5.83,4.45-5.83c-10.01-7.16,0-23.5,0-23.5c32.67-12.66,39.33,4,39.33,4c8.67,6,2.67-12,2.67-12l-6-10
				c-24,10.67-12.67-9.33-12.67-9.33c-7.33,2-6-15.33-6-15.33c-13.33-2.67-24.66-29.34-24.66-29.34c44-15.33,63.33,20,63.33,20
				l14.67,2.67c4-3.33,20-3.33,20-3.33c-58,16.66-15.34,29.33-15.34,29.33C414.99,248.447,428.33,257.117,428.33,257.117z"/>
			<path style="fill:#9398A2;" d="M310.33,309.277c0,0,1.77,10.5-4.45,5.83c0,0-53.17-12.75-20.21,21.33
				c0,0,5.31,10.729,17.37,14.67c-9.36-0.2-21.3,1.42-21.3,1.42c-8.66-9.41-3.08,10.61-3.08,10.61
				c18.99-9.971,13.67,13.3,13.67,13.3c-6-0.66-13.67,27.45-13.67,27.45c-3.6-6.44-11.12-10.261-26.33-4.551
				c0,0-25.33,5.12-16.66-26.89c0,0-11.28-28.88-35.92-27.67c5.66-0.73,17.6-2.33,11.91-2.33c-7.33,0-13.33-11.33-13.33-11.33
				c-6.67-6,18.67-21.84,18.67-21.84l8,5.17c0,0,14,0,1.33-5.17c-0.85-0.34-1.7-0.75-2.54-1.21c-11.68-6.42-22.13-22.95-22.13-22.95
				c-1.33-7.33,34.67-12,34.67-12c4-15.33,17.33-6.67,17.33-6.67c24-11.33,56.67,19.33,56.67,19.33S300.32,302.117,310.33,309.277z"
				/>
			<path style="fill:#9C969C;" d="M281,427.247c2.67,36.811-72.67,14.53-72.67,14.53c-28,16-74.66-11.95-74.66-11.95
				c-27.03-25.66,7.84-71.64,8.64-72.68c0.01-0.01,0.01-0.021,0.01-0.021c17.41-19.569,42.71-17.779,51.44-16.449
				c2.06,2.5,3.24,4.439,3.24,4.439s1.09-0.13,2.7-0.34c0.02,0,0.03,0,0.05,0c24.64-1.21,35.92,27.67,35.92,27.67
				c-8.67,32.01,16.66,26.89,16.66,26.89c15.21-5.71,22.73-1.89,26.33,4.551C283.74,412.967,281,427.247,281,427.247z"/>
			<path style="fill:#8097A4;" d="M190.42,337.037c1.27,1.25,2.4,2.5,3.34,3.641c-8.73-1.33-34.03-3.12-51.44,16.449
				c0,0,0,0.011-0.01,0.021c-25.16,28.28-14.65-24.54-14.65-24.54S169.82,327.397,190.42,337.037z"/>
			<path style="fill:#8F8692;" d="M177.66,313.787l-9.33,13.33l7.33,2.66c5.79,0,10.96,3.56,14.76,7.26
				c-20.6-9.64-62.76-4.43-62.76-4.43c-4-9.19-32.66-13.49-32.66-13.49s31.47-34.34,49.37-16.97l-0.71,1.3l3.46,1.94v0.01
				l12.54,7.05C160.33,300.447,177.66,313.787,177.66,313.787z"/>
			<path style="fill:#A88589;" d="M145.66,299.787l-1.29,2.36c-17.9-17.37-49.37,16.97-49.37,16.97
				c-4.28-15.69-12.95-22.71-21.47-25.61c0,0,0,0-0.01-0.01c-0.5-0.32-16.62-10.6-23.19-24.38c28-40,62,0,62,0
				C142.33,269.787,145.66,299.787,145.66,299.787z"/>
			<path style="fill:#8695A2;" d="M127.66,332.607c0,0-10.51,52.82,14.65,24.54c-0.8,1.04-35.67,47.02-8.64,72.68
				C109,452.537,95,421.107,95,421.107c-6.01-25.33-29.33-32-21.47-1.33c7.86,30.67-15.86,34.66-15.86,34.66
				c-14,6.67-40.21-35.33-40.21-35.33c-4.71-19.95-14.77-5.11-15.46-4.061v-18.6c0,0,24.46-28.69,30.8-24.16c0,0,0,0.01,0.01,0.01
				c0.06,0.04,0.13,0.091,0.19,0.15h17c0,0,4.46-38.65,49.06-17.99C99.06,354.457,119.52,333.357,127.66,332.607z"/>
			<path style="fill:#8D8796;" d="M127.66,332.607c-8.14,0.75-28.6,21.85-28.6,21.85c-44.6-20.66-49.06,17.99-49.06,17.99H33
				c-0.06-0.06-0.13-0.11-0.19-0.15c-0.01,0-0.01-0.01-0.01-0.01c-1.94-1.52-17.08-13.78-16.18-24.47
				c0.09-1.15,0.38-2.271,0.88-3.37c0,0,24.16-20,24.83-29.33c0,0,10.67-14.67,8.67-22c0,0,11.12-3.49,22.52,0.38
				c0.01,0.01,0.01,0.01,0.01,0.01c8.52,2.9,17.19,9.92,21.47,25.61C95,319.117,123.66,323.417,127.66,332.607z"/>
			<path style="fill:#A5878C;" d="M50.33,269.117c6.57,13.78,22.69,24.06,23.19,24.38c-11.4-3.87-22.52-0.38-22.52-0.38l-5.23-24.35
				C48.59,268.938,50.33,269.117,50.33,269.117z"/>
			<path style="fill:#A5878C;" d="M51,293.117c2,7.33-8.67,22-8.67,22c-0.67,9.33-24.83,29.33-24.83,29.33
				c-0.5,1.1-0.79,2.22-0.88,3.37c-24.37-7.311-0.96-44.37-0.96-44.37c-35.33-29,16-34.69,16-34.69l-0.01-0.19
				c5.53-0.21,10.64-0.02,14.12,0.19v0.01L51,293.117z"/>
			<path style="fill:#AE8B89;" d="M31.65,268.567l0.01,0.19c0,0-51.33,5.69-16,34.69c0,0-23.41,37.06,0.96,44.37
				c-0.9,10.689,14.24,22.95,16.18,24.47c-6.34-4.53-30.8,24.16-30.8,24.16v-112.66C1.03,272.117,17.65,269.067,31.65,268.567z"/>
		</g>
		<g>
		</g>
	</g>
</g>
<g id="&#x56FE;&#x5C42;_4" style="display:none;">
	<g id="XMLID_3_" style="display:inline;">
		<g>
			<path style="fill:#D9C4AF;" d="M958.52,487.647c2.301,0.41,4.5,0.84,6.54,1.28c8.24,1.77,13.94,3.52,13.94,3.52v110H3v-72.15
				c0,0,101.84-11.909,108.98-40.859c0.01,0.01,0.02,0.01,0.02,0.01c0-0.03,0-0.05,0.01-0.08c1.04,0.03,68.01,2.24,70.99,28.04
				c3,26,10,12.87,10,12.87l25-7.83h76l19-27c0,0,34-28,46-18c3.53,2.95,14.71,2.51,28.81,0.83c13.56-1.61,29.84-4.37,44.65-6.35
				c0.18,0.17,0.36,0.34,0.54,0.52c0.45-0.27,0.9-0.53,1.35-0.77c2.08-0.28,4.13-0.53,6.13-0.761c1.5,11.84,3.02,23.9,3.02,24.53
				l2.5-1.25l-1.57-23.72c6.52-0.681,12.45-1.05,17.31-0.92c7.74,1.899,13.26,4.89,13.26,4.89c27-20,110,16,110,16
				c4.65-7.9,17.07-7.16,29.04-4.1c-0.43,12.029-1.15,21.71-2.37,23.1H618c0,0,0.25-9.97,0.49-21.86
				c12.04,3.62,22.51,8.86,22.51,8.86c3.24-6.01,25.3-6.89,48.07-6.1c-1.07,9.699-1.9,17.42-1.9,17.42
				c0.83,2.33,4.33,0.84,4.33,0.84c-0.17-0.87,0.92-9.75,2-18.09c25.03,1.09,49.5,3.93,49.5,3.93c11-16,95,2,95,2c9-14,72-4,72-4
				C919.98,483.058,942.02,484.688,958.52,487.647z"/>
			<path style="fill:#E0C4B2;" d="M969.76,453.178c0.391-0.431,8.811-9.931,6.74-2.73l-7.75,8.5c0,0-3.51,28.96-3.69,29.98
				c-2.04-0.44-4.239-0.87-6.54-1.28c0.301-1.72,7-39.58,7.73-44.561l-5.74-17.85c0.29,0.47,4.891,7.96,5.74,12.03
				c0,0,4.63-35.82,4.63-45.82H974C974,391.447,970.76,450.308,969.76,453.178z"/>
			<path style="fill:#9EABAD;" d="M803.25,451.197l-1.25,8.79l0.25,17.46h-3.63c0,0-4.93-36.12-5.43-36.88l-5.44-7.12H790l3.19,4.38
				l-2.19-9.38h4l2.25,13.5l2.75-5l-1.75,7.25l1.75,14L803.25,451.197z"/>
			<path style="fill:#D6BEB0;" d="M704.17,458.098c0.83-0.33,5-3,2.66,2.67c0,0-9.83,13-11.33,14.83c0,0-1,7.229-2,14.92
				c-1.47-0.061-2.95-0.12-4.43-0.17c1.72-15.511,4.02-36.101,4.43-38.25c0,0-6.33-19.16-5.17-27.83c0,0,1.5-1.33,2,1.33
				c0,0,2.5,24,4.34,23.5c0,0,2.33-35.16,3.5-36.66c0,0,2.33-3.67,2,1.33l0.03,15.83c0,0,4.97-8.33,4.47-9.16c0,0,2-2.5,1,3.83
				c0,0-4,8-5.84,8.83c0,0-2.88,32.159-3.271,34.5C696.56,467.598,703.33,458.438,704.17,458.098z"/>
			<path style="fill:#B4BCB8;" d="M693.5,490.518c-1.08,8.34-2.17,17.22-2,18.09c0,0-3.5,1.49-4.33-0.84c0,0,0.83-7.721,1.9-17.42
				C690.55,490.397,692.03,490.457,693.5,490.518z"/>
			<path style="fill:#D4BFAA;" d="M626.33,434.268l-7.5,14c0.29,0.149,0.17,11.56-0.05,24.5l-4.3-5.17
				c0.25-17.87,0.119-34.65,0.119-34.65l-2.77-4.34c-3.5-7,1.17-6.12,1.17-6.12l2,4.96v-7.34c1-5.83,3.83,0.18,3.83,0.18
				l-0.4,22.771l5.9-9.46C625.5,431.438,626.33,434.268,626.33,434.268z"/>
			<path style="fill:#B9BFB6;" d="M614.48,467.598l4.3,5.17c-0.09,4.899-0.19,10.02-0.29,14.819c-1.471-0.449-2.96-0.859-4.45-1.239
				C614.25,480.428,614.39,473.947,614.48,467.598z"/>
			<path style="fill:#A9BDBB;" d="M618.49,487.587c-0.24,11.891-0.49,21.86-0.49,21.86h-6.33c1.22-1.39,1.94-11.07,2.37-23.1
				C615.53,486.728,617.02,487.138,618.49,487.587z"/>
			<path style="fill:#D6C6B1;" d="M444.29,468.438l0.14,2.04c-1.29,0.13-2.61,0.279-3.95,0.439c-0.07-0.55-0.14-1.09-0.21-1.63
				C441.6,468.917,442.95,468.627,444.29,468.438z"/>
			<path style="fill:#99B4B6;" d="M461.74,469.558c-4.86-0.13-10.79,0.239-17.31,0.92l-0.14-2.04
				C450.44,467.507,456.58,468.287,461.74,469.558z"/>
			<path style="fill:#B9B7AA;" d="M440.27,469.287c0.07,0.54,0.14,1.08,0.21,1.63c-2,0.23-4.05,0.48-6.13,0.761
				C436.28,470.638,438.26,469.857,440.27,469.287z"/>
			<path style="fill:#B9B7AA;" d="M447.25,458.947l1.75,2.12l-4.71,7.37c-1.34,0.189-2.69,0.479-4.02,0.85
				c-1.42-11.13-2.77-21.59-2.77-21.59l-7.01-8.5c-3.02-7.5,0-5,0-5l7.01,10.5l-7-39.5c-0.25-9.5,3,0,3,0l4,20.75l1.57-10.5
				l1.93,0.25l-1.93,16.31c0.83,2.311,4.68,34.44,4.68,34.44L447.25,458.947z"/>
			<path style="fill:#D6C6B1;" d="M444.43,470.478l1.57,23.72l-2.5,1.25c0-0.63-1.52-12.69-3.02-24.53
				C441.82,470.757,443.14,470.607,444.43,470.478z"/>
			<path style="fill:#6F899B;" d="M392.5,443.268c2.84-3.641,2.67,0.68,2.67,0.68l-5.17,7.5v24.17c-0.86,1.43-1.62,1.99-2.26,2.05
				c-1.6,0.16-2.49-2.72-2.49-2.72c0.6,0.11-0.12-17.27-0.68-29.34c-0.31-6.41-0.57-11.33-0.57-11.33l-3.67-9
				c-1.5-3.5,1-2.16,1-2.16l2.67,6.33v-32.17c1-2.5,3.42,0,3.42,0c-0.34,7.67,1.08,17,1.08,17l0.83-5.16c0.84-5.17,1.67,0,1.67,0
				l-1.67,7.33l-0.16,22.5c-0.34,12.33,1.08,8.15,1.08,8.15L392.5,443.268z"/>
			<path style="fill:#98B1B6;" d="M390,451.447c3.99,1.06,23.24,1.96,42.46,20.48c-14.81,1.979-31.09,4.739-44.65,6.35l-0.07-0.61
				c0.64-0.06,1.4-0.62,2.26-2.05V451.447z"/>
			<path style="fill:#728597;" d="M231.54,457.837l-1.29,0.431l-0.75-1.82C229.5,456.447,229.25,454.087,231.54,457.837z"/>
			<path style="fill:#728597;" d="M241.17,437.777c0,0,7.12-1.85,0.06,5.49c0,0-2.56,2.18-2.56,8.01l-0.13,4.56l-3.59,1.03
				l0.26-15.42l-8.71-10.5c0,0-1.5-4.67,3.17-1c0,0,1.33,4.5,4.33,7.17c0,0-0.33-32-2-39.34c0,0,3.67-4.66,7,0v44.67
				C239,442.447,241.67,439.777,241.17,437.777z"/>
			<path style="fill:#75889E;" d="M235.2,464.417c-0.01-0.08-0.37-0.8-0.37-0.8l0.12-6.75l3.59-1.03l-0.71,25.61
				c0,0-3.83,2.17-3.83,0v-14l-3.75-9.18l1.29-0.431c0.36,0.591,0.79,1.341,1.29,2.28C234.57,463.357,235.11,464.308,235.2,464.417z
				"/>
			<path style="fill:#B1BCB8;" d="M24.63,436.007c-0.74-1.35-1.37-11.529-1.63-16.319c0-0.141-0.01-0.28-0.02-0.41
				c0-0.021,0-0.04,0-0.061c-0.01-0.06-0.01-0.109-0.01-0.17c-0.08-5.68,3.28-0.85,3.28-0.85c0.49,3.75,3.75,33.5,3.75,33.5l2.5-4.5
				c3.5-4.75,2.5,0,2.5,0l-4,9c-2.25,2.25,0,28.75,0,28.75c6.5-2.25,0,3.5,0,3.5v16l0.01,0.22c-1.69,0.101-3.37,0.181-5,0.221
				l-0.01-0.44v-28l-2.38-5.25c-6.25-12.75-1.47-7.75-1.47-7.75l4.1,7.74l-1.51-29.25l-4.01-7.521c-5-10.5-1.51-6.52-1.51-6.52
				L24.63,436.007z"/>
			<path style="fill:#C8C7B8;" d="M387.74,477.667l0.07,0.61c-14.1,1.68-25.28,2.12-28.81-0.83c-12-10-46,18-46,18l-19,27h-76
				l-25,7.83c0,0-7,13.13-10-12.87c-2.98-25.8-69.95-28.01-70.99-28.04c2.17-27.9,97.99-18.92,97.99-18.92
				c5.2-5.72,12-9.45,20.25-12.18l3.75,9.18v14c0,2.17,3.83,0,3.83,0l0.71-25.61c22.31-5.85,45.46-3.39,45.46-3.39c10,9,49,0,49,0
				c18.61-10.79,35.53-11.1,51.56-6.84h0.01c0.56,12.07,1.28,29.45,0.68,29.34C385.25,474.947,386.14,477.827,387.74,477.667z"/>
			<path style="fill:#98AAAB;" d="M70,499.447c5.91-18.71,40.91-10.27,41.98-10.01C104.84,518.388,3,530.297,3,530.297v-31.85
				c0.77,5.39,10.87,6.78,23.01,6.44c1.63-0.04,3.31-0.12,5-0.221C49.38,503.567,70,499.447,70,499.447z"/>
		</g>
		<g>
		</g>
	</g>
</g>
<g id="&#x56FE;&#x5C42;_5" style="display:none;">
	<g id="XMLID_4_" style="display:inline;">
		<g>
			<path style="fill:#C6BCB0;" d="M946.07,602.447H822.64c23.181-18.38,22.99-26.85,15.65-30.61
				C838.29,571.837,884.57,530.877,946.07,602.447z"/>
			<path style="fill:#DBC0AB;" d="M919.36,499.667c1.27,13.141,2.26,24.78,2.26,24.78c0.28,3.19,8.88,0,8.88,0
				c-0.54-1.73-2.81-18.91-5.21-37.85c50.46-10.9,53.71,11.85,53.71,11.85v104h-32.93c-61.5-71.57-107.78-30.61-107.78-30.61
				c-9.12-4.659-29.29-2.02-29.29-2.02c-9-14.64-50-8.37-50-8.37c-12,16-66,4.13-66,4.13c-45,6.12-98-7.13-98-7.13
				c-14,8-74,7.13-74,7.13c-46,12.12-42.16-25.64-42.16-25.64c14.48-3.82,24.16-7.49,24.16-7.49c-0.62-14.3,20.8-26.28,37.09-33.3
				c0.21,3.92,0.45,7.91,0.68,11.81c0.98,16.141,2.021,30.59,2.021,30.59c0.17,2.351,10.96,0,10.96,0
				c-0.77-2.27-1.39-13.189-1.85-24.699c0.119,1.399,0.149-8.62,0.149-22.4c3.66-1.3,5.95-2,5.95-2c5-19,82,3,82,3c12-20,97,2,97,2
				c-0.4-2.97,3.24-4.76,9.34-5.73c1.42,12.94,2.78,22.851,2.78,22.851c0.3,2.24,7.13,0,7.13,0c-0.2-0.95-0.88-11.43-1.64-23.63
				c28.47-1.351,81.39,6.51,81.39,6.51c1.26-2.1,5.12-3.59,10.44-4.62c-1.94,10.311-5.32,24.24-5.32,24.24
				c0.63,3.63,8.63,2.63,8.63,2.63c1.98-0.78,3.96-12.74,5.71-28.1c21.14-2.021,51.54-0.15,51.54-0.15
				c3.95-1.22,7.69-2.28,11.22-3.18C918.61,492.037,919,495.917,919.36,499.667z"/>
			<path style="fill:#ABC0BC;" d="M838.29,571.837c7.34,3.761,7.53,12.23-15.65,30.61H275.76c8.85-2.91,15.78-11.18,17.82-28.61
				c0,0,54.12-30.159,88.68-32.3c6.95,3.07,14.66,4.97,22.73,5.97c25.28,3.181,54.05-2.34,73.85-7.569c0,0-3.84,37.76,42.16,25.64
				c0,0,60,0.87,74-7.13c0,0,53,13.25,98,7.13c0,0,54,11.87,66-4.13c0,0,41-6.27,50,8.37C809,569.817,829.17,567.178,838.29,571.837
				z"/>
			<path style="fill:#A6C1BE;" d="M257.04,602.447H32c0,0,15.96-13.84,71.15-19.53c27.73-2.859,65.37-3.66,115.87,0.4
				c0,0,0.01,0,0.02,0.01C219.72,583.857,238.45,598.047,257.04,602.447z"/>
			<path style="fill:#D4CDB7;" d="M3,602.447c0,0,31.2-39.06,100.15-19.53c-55.19,5.69-71.15,19.53-71.15,19.53H3z"/>
			<path style="fill:#D4CDB7;" d="M368,532.447c4.2,3.78,9.01,6.77,14.26,9.09c-34.56,2.141-88.68,32.3-88.68,32.3
				c-13.25,20.15-73.13,9.73-74.54,9.49c-0.01-0.01-0.02-0.01-0.02-0.01c-50.5-4.061-88.14-3.26-115.87-0.4
				C34.2,563.388,3,602.447,3,602.447v-65c0-24.79,35.61-25.5,56.39-23.8c-0.33,9.64-0.41,18.38,0.08,23.3c0,0,9.03,14.5,8.53-19.5
				l-0.04-2.9c3.75,0.48,6.04,0.9,6.04,0.9c14-66,104,2,104,2c3.52,5.28,6.95,8.32,10.05,9.98c3.01,9.25,8.7,6.02,8.7,6.02
				l-0.1-4.38c2.71-0.43,4.35-1.62,4.35-1.62l29-6c9.02-9.93,25.11-12.89,43.19-12.16c-0.09,10.84-0.19,19.16-0.19,19.16h9.25
				c-0.11-0.42-0.51-8.88-0.95-18.62c11.86,1.101,24.23,3.51,35.79,6.36c1.34,15.5,2.24,33.59,2.24,33.59
				c2.17,3.91,7.31,2.729,10.63,1.43c1.78-0.7,3.04-1.43,3.04-1.43c1.12-2.09-1.47-19.82-3.11-30.19
				C351.64,525.787,368,532.447,368,532.447z"/>
			<path style="fill:#F5E6DE;" d="M885.49,301.927c-0.25-1.25-10.42-50.85-5.24-40.23c0,0,15.26,60.08,15.98,63.62l-0.23-1.62
				c0,0,8.75-34.3,8.75-32c0,3-8.63,42-7.44,44c0,0,1.301,5.29,3.221,13.24c-1.92-1.95-3.181,8.26-3.25,8.79
				c-4.061-19.48-10.09-48.061-10.9-50.03L873,285.447v-1C873,284.447,882.97,298.147,885.49,301.927z"/>
			<path style="fill:#E0BCAA;" d="M915.81,420.647c0.771-3.86,8.801-43.66,10.94-42.95c0,0-12.75,46-8,56.25c0,0,2.38,19.55,5,40.5
				c-2.75-0.75-8.99-18-8.99-18s-11.51-71-12.51-74L885,353.697c0,0-0.75-3.25,1.75,0c0,0,10.75,15.25,14.25,22
				c0,0-1.59-7.72-3.72-17.95c0,0,0-0.01,0-0.02c0.069-0.53,1.33-10.74,3.25-8.79C905.97,371.527,916.35,415.567,915.81,420.647z
				 M915.76,420.888c0.021-0.051,0.03-0.101,0.04-0.171C915.78,420.797,915.77,420.857,915.76,420.888z"/>
			<path style="fill:#A8BFB5;" d="M925.29,486.598c-0.18,0.029-0.36,0.069-0.55,0.119c-1.141-1.409-2.09-0.859-2.851,0.65
				c-1.199,0.28-2.42,0.58-3.67,0.9c-1.3-12.7-2.66-24.101-3.41-25.07l-26.279-45.5c0,0-0.261-4,2.489,0
				c0,0,22.99,38.75,23.74,38.75c0,0,6.24,17.25,8.99,18C924.26,478.487,924.77,482.577,925.29,486.598z"/>
			<path style="fill:#ABBBB7;" d="M921.89,487.367c-1.479,2.94-2.26,9.521-2.529,12.3c-0.36-3.75-0.75-7.63-1.141-11.399
				C919.47,487.947,920.69,487.647,921.89,487.367z"/>
			<path style="fill:#ABBBB7;" d="M924.74,486.717c0.189-0.05,0.37-0.09,0.55-0.119c2.4,18.939,4.67,36.119,5.21,37.85
				c0,0-8.6,3.19-8.88,0c0,0-0.99-11.64-2.26-24.78c0.27-2.779,1.05-9.359,2.529-12.3C922.86,487.138,923.81,486.917,924.74,486.717
				z"/>
			<path style="fill:#9CB7B9;" d="M846,439.447c0,0,1,39,3.5,38.88c0,0-1.85,7.351-2.17,9.37c0.4-2.67,0.57-4.65,0.36-5.4
				c0,0-4.101-42.85-3.141-42.85H846z"/>
			<path style="fill:#F4DCBD;" d="M863,381.697v24c0,0-6.13,14.37-6.94,12.86c1.7-18.33,2.761-34.58,1.561-37.87
				C857.62,380.688,861,378.447,863,381.697z"/>
			<path style="fill:#B7BABB;" d="M874.5,396.697c0,0,3,0.25,1.25,2c0,0-12.25,21.5-14.5,22.25l1.75-6.5
				C863,414.447,874,400.447,874.5,396.697z"/>
			<path style="fill:#D9BFA7;" d="M863,405.697v8.75l-1.75,6.5c0,0-0.71,11.93-1.88,27.5c0,0,0,0.05-0.01,0.13
				c-0.19,1.91-2.46,23.44-6.69,2.76v-0.01c1.13-10.12,2.38-21.82,3.39-32.77C856.87,420.067,863,405.697,863,405.697z"/>
			<path style="fill:#AABDB9;" d="M852.67,451.337c4.23,20.681,6.5-0.85,6.69-2.76c-1.011,13.43-2.36,29.53-3.9,43.021
				c-3.28,0.31-6.34,0.71-9.02,1.229c0.35-1.87,0.659-3.61,0.89-5.13c0.32-2.02,2.17-9.37,2.17-9.37S850.95,466.647,852.67,451.337z
				"/>
			<path style="fill:#A5BCB8;" d="M855.46,491.598c-1.75,15.359-3.729,27.319-5.71,28.1c0,0-8,1-8.63-2.63
				c0,0,3.38-13.93,5.32-24.24C849.12,492.308,852.18,491.907,855.46,491.598z"/>
			<path style="fill:#B5BAB8;" d="M770,415.697c0,0,1.75,1.41,0,2.25c0,0-15.75,31-17.75,32.75c0,0,0.07,1.3,0.2,3.52l-1.45-5.77
				C751,448.447,769.25,417.197,770,415.697z"/>
			<path style="fill:#DBBFA4;" d="M758.75,367.697l2.25,0.5c0,0-6.5,22.25-9,23.5c0,0-1,55.25-1,55.75s0,1,0,1l1.45,5.77
				c0.37,6.4,1.18,20.5,1.97,33.471c-3.58-10.971-8.79-2.73-8.79-2.73c-2.16-21.14-3.96-46.71-0.689-51.819l0.31-7.19
				c0,0,0.16-23.98,0.68-45.26c0,0,5.24-4.76,6.15,0h0.01c0.12,2.939,0.4,4.819,0.91,4.76L758.75,367.697z"/>
			<path style="fill:#AABFBD;" d="M754.61,490.938c0.76,12.2,1.439,22.68,1.64,23.63c0,0-6.83,2.24-7.13,0
				c0,0-1.36-9.91-2.78-22.851C748.74,491.327,751.53,491.077,754.61,490.938z"/>
			<path style="fill:#B0B9AD;" d="M754.42,487.697c0.07,1.09,0.13,2.17,0.19,3.24c-3.08,0.14-5.87,0.39-8.271,0.779
				c-0.24-2.17-0.479-4.439-0.71-6.76c0,0,5.21-8.24,8.79,2.73V487.697z"/>
			<path style="fill:#FAF7EF;" d="M752.09,380.688h-0.01c-0.91-4.76-6.15,0-6.15,0c0.431-16.86,1.08-32.021,2.07-32.24
				c0,0,5-3.75,5,0C753,348.447,751.66,370.688,752.09,380.688z"/>
			<path style="fill:#C3B4AC;" d="M745.25,425.947l-0.31,7.19c0,0-9.19-38.69-6.94-53.69h1
				C739,379.447,743.25,425.697,745.25,425.947z"/>
			<path style="fill:#F5B296;" d="M573.97,359.697c0.28,0,1.82,2.75,1.82,2.75S549,400.697,549,406.197c0,0-0.25,4.25-0.56,10.62
				c-2.11,4.81-7.44,11.78-7.7,12.12c0.81-22.771,1.92-50.21,2.5-50.36c0,0-7.24-13.13-6.99-25.13H537c0,0,5.92,20.17,6.24,20.75
				c0,0.11-0.01,0.5-0.01,0.5s2.09-22.71,3.699-41.01c0.681-7.67,8.521-18.95,8.521-18.95c-0.7,7.11-1.311,12.31-1.69,13.44
				c-0.01,0.01-0.01,0.02-0.01,0.02l0.25,0.25v5l0.4,0.16c-0.351,0.54-0.58,0.84-0.65,0.84c0,0-5.25,60.35-4,62.8
				C549.75,397.247,573.7,359.697,573.97,359.697z"/>
			<path style="fill:#EDBEA8;" d="M573.75,296.447c0,0,0.5,1.5,0,2.75c-0.45,1.13-15.89,29.16-19.35,34.41l-0.4-0.16v-5l-0.25-0.25
				c0,0,0-0.01,0.01-0.02C554.34,327.207,573.01,296.197,573.75,296.447z"/>
			<path style="fill:#D0C2AE;" d="M562.5,447.697c0,0,3.25-2.25,1,5c0,0-8.47,17.12-11.47,27.85c0-3.84-0.011-7.77-0.021-11.659
				C555.85,460.768,562.01,446.728,562.5,447.697z"/>
			<path style="fill:#F9F7EB;" d="M550.5,301.947c0,0,5-64.75,9.75-45c0,0-2.76,37.05-4.8,57.79c0,0-7.84,11.28-8.521,18.95
				c1-11.431,1.82-21.141,1.82-22.49c0,0-1-1.92-2.34-5.15l2.34-0.35C548.75,305.697,550.5,309.447,550.5,301.947z"/>
			<path style="fill:#DABDAA;" d="M552.01,468.888c0.01,3.89,0.021,7.819,0.021,11.659c-0.7,2.49-1.101,4.641-1.03,6.15
				c0,0,0.06,3.2,0.19,8.07c-3.051,1.1-6.91,2.569-11.101,4.38c-0.8-14.66-1.35-28.19-0.82-31.141c0,0-1.689-5.68-4-13.71l2.48-0.58
				c0.93,3.2,1.64,5.19,1.97,5.24c0,0,0.431-13.819,1.011-30.01c0,0,0,0,0.01-0.01c0.26-0.34,5.59-7.311,7.7-12.12
				c-0.94,19.189-2.44,57.63,0.56,57.63C549.29,474.447,550.46,472.147,552.01,468.888z"/>
			<path style="fill:#BDBEB5;" d="M551.9,516.848c0.46,11.51,1.08,22.43,1.85,24.699c0,0-10.79,2.351-10.96,0
				c0,0-1.04-14.449-2.021-30.59h0.011c0,0,10.72-3.04,11.1,5.49C551.89,516.627,551.9,516.757,551.9,516.848z"/>
			<path style="fill:#D6BCA9;" d="M551.19,494.768c0.149,5.75,0.38,13.83,0.689,21.68c-0.38-8.53-11.1-5.49-11.1-5.49h-0.011
				c-0.229-3.899-0.47-7.89-0.68-11.81C544.28,497.337,548.14,495.867,551.19,494.768z"/>
			<path style="fill:#FFF1E7;" d="M548.75,305.697l-2.34,0.35c-3.51-8.41-9.34-25.68-5.91-40.85l1.25,1.5
				C541.75,266.697,544.25,294.447,548.75,305.697z"/>
			<path style="fill:#CDC4B7;" d="M537.75,453.717l-2.48,0.58c-5.479-19.159-14.42-51.689-12.13-52.569c0,0,2.301-1.261,2.301,1.489
				C525.44,403.217,533.71,439.848,537.75,453.717z"/>
			<path style="fill:#D0C2B0;" d="M342.33,450.777l2.34,0.34c0,0-7.34,52.66-16,61c0,0,0.53,3.07,1.22,7.47
				c-0.84-0.239-1.7-0.479-2.56-0.72c-5.12-32.99-15.66-39.75-15.66-39.75s10.22-0.05,10.66,2.39c2,11.391,4.4,21.99,6.67,24.271
				C329,505.777,344.33,454.117,342.33,450.777z"/>
			<path style="fill:#CFC9B7;" d="M329.89,519.587c1.64,10.37,4.23,28.101,3.11,30.19c0,0-1.26,0.729-3.04,1.43
				c-0.29-12.89-1.27-23.55-2.63-32.34C328.19,519.107,329.05,519.348,329.89,519.587z"/>
			<path style="fill:#D9BDA5;" d="M329,392.447h3c0,0-2.33,37.67-14.33,57c0,0,1.97,16.75,4.66,32.06
				c-0.44-2.439-10.66-2.39-10.66-2.39c-1.69-15.05-6.2-53.53-8.34-55.67c0,0-22.66-39-20-44c0,0,15,36,19,37
				c0,0-0.99-8.54-2.25-19.64c0,0,2.93,15.689,11.59,17.5l5.33,31.31C317,445.617,331.33,410.447,329,392.447z"/>
			<path style="fill:#9FBCC2;" d="M327.33,518.867c1.36,8.79,2.34,19.45,2.63,32.34c-3.32,1.3-8.46,2.48-10.63-1.43
				c0,0-0.9-18.09-2.24-33.59C320.59,517.047,324.02,517.947,327.33,518.867z"/>
			<path style="fill:#A8BFBD;" d="M311.67,479.117c0,0,10.54,6.76,15.66,39.75c-3.31-0.92-6.74-1.82-10.24-2.68
				c-0.97-11.19-2.16-21.04-3.42-21.74l-13-17.06l11.66,7.699C312.33,485.087,312.09,482.808,311.67,479.117z"/>
			<path style="fill:#D6B1A1;" d="M319,305.787c0,0,1.33,59.33-11.67,83l-0.25-2.89v-0.021c0-0.069-0.02-0.3-0.06-0.71l-0.02-0.18
				c0,0,11.33-28.85,9-79.85L319,305.787z"/>
			<path style="fill:#F2B18E;" d="M295,347.117c0,0-1.75-3.11-4.26-7.84l2.41-0.63c0.67,1.35,1.15,2.08,1.35,1.97
				c0,0-1.11-10.979-2.46-25.51h0.01c0,0,3.69,10.71,7.49,13.689c3.9,30.15,7.43,57.101,7.54,57.101l0.25,2.89l4.34,25.521
				c-8.66-1.811-11.59-17.5-11.59-17.5c-2.08-18.32-4.87-43.58-5.08-48.86V347.117z"/>
			<path style="fill:#F8E9C7;" d="M289,247.027c0,0,5.58,43.47,10.54,81.77c-3.8-2.979-7.49-13.689-7.49-13.689h-0.01
				C289.05,282.787,284.86,232.887,289,247.027z"/>
			<path style="fill:#F0DDC8;" d="M293.15,338.647l-2.41,0.63c-6.8-12.811-19.2-37.48-17.74-44.66c0,0,1.73-3.17,2.7,0
				C275.7,294.617,288.72,329.848,293.15,338.647z"/>
			<path style="fill:#B3BBB8;" d="M289,461.697v2.75c0,0-8,11.12-9,15.38l-1.75-4.88C278.25,474.947,287.75,461.697,289,461.697z"/>
			<path style="fill:#ADBBB5;" d="M282.25,528.447H273c0,0,0.1-8.32,0.19-19.16c2.67,0.101,5.37,0.28,8.11,0.54
				C281.74,519.567,282.14,528.027,282.25,528.447z"/>
			<path style="fill:#A0A8AE;" d="M279.25,406.697c0,0,2.25-5.5,2,2.25c0,0-2.75,14.75-4,16.25c0,0-0.96,1.16-1.11,4.69l-0.89-6.94
				C275.25,422.947,279.25,410.697,279.25,406.697z"/>
			<path style="fill:#B8BCB5;" d="M280.44,490.197c0.25,5.71,0.56,12.97,0.86,19.63c-2.74-0.26-5.44-0.439-8.11-0.54
				c0.04-5.92,0.09-12.6,0.11-19.09h0.01C273.31,490.197,274.13,478.697,280.44,490.197z"/>
			<path style="fill:#DDBDAD;" d="M273,460.197c0,0-9.75-23.5-8.75-25.25c0,0,8.25,19,8.5,19.25c0.16,0.16-0.57-19.1-1.13-33.52
				c1.1-6.19,3.04-15.12,3.08-15.12l0.09,2.88l0.46,14.51l0.89,6.94c-0.02,0.479-0.02,0.989-0.01,1.56c0,0,0.62,41,2.12,43.5
				l1.75,4.88c0,0,0.18,4.311,0.44,10.37c-6.31-11.5-7.13,0-7.13,0h-0.01C273.37,475.768,273.33,462.287,273,460.197z"/>
			<path style="fill:#E7DED8;" d="M274,383.447l0.7,22.11c-0.04,0-1.98,8.93-3.08,15.12c-0.34-8.601-0.62-15.48-0.62-15.48v-3.75
				v-18C271,383.447,272.5,380.197,274,383.447z"/>
			<path style="fill:#B2C2C5;" d="M271,401.447v3.75c0,0-8.25-15.75-5-17L271,401.447z"/>
			<path style="fill:#DEBDA5;" d="M194.51,471.938c0.38-0.61,12.51-20.21,13.99-33.99c0,0,2.5-1.75,1.75,1.25
				c0,0-10.25,34.25-14.75,38.5l0.67,29.75c-7.84-7.51-9.88-17.25-9.88-17.25h-0.01c0.03-24.97-0.02-64.81-0.53-65.5
				c0,0-16-35.75-11.75-31l11,22.25c0,0-0.72-22.9-1.91-48.53h0.01c3.85,4.73,8.15,21.03,8.15,21.03S195.99,469.277,194.51,471.938z
				"/>
			<path style="fill:#F8EBDE;" d="M204,329.947l1.5,2.5c0,0-11.75,20.5-14.25,30.5c0,0-0.25,17.25,0,25.5c0,0-4.3-16.3-8.15-21.03
				h-0.01c-1.47-32.17-3.68-68.64-6.09-69.47c0,0,3.5-7.5,6,0c0,0,7,59,6,61L204,329.947z"/>
			<path style="fill:#C2C0B4;" d="M196.65,529.067l0.1,4.38c0,0-5.69,3.23-8.7-6.02C191.43,529.257,194.41,529.428,196.65,529.067z"
				/>
			<path style="fill:#B8BDB4;" d="M196.17,507.447l0.48,21.62c-2.24,0.36-5.22,0.189-8.6-1.64c-1.17-3.61-1.94-9.131-1.8-17.48
				c0,0,0.02-8.31,0.03-19.75h0.01C186.29,490.197,188.33,499.938,196.17,507.447z"/>
			<polygon style="fill:#A2B2B4;" points="81,476.447 81,478.947 67.77,501.447 68,494.447 			"/>
			<path style="fill:#E0BBA4;" d="M74,423.947c0.5,22-6,19.5-6,19.5v43h-7l-0.24-0.02c0.64-10.591,1.24-18.48,1.24-18.48
				c3-11,0-63,0-63l-5.5-22c-2-10,0-4.5,0-4.5l5.5,16v-29h5h0.12c0.08,29.83,1.19,70.79,1.19,70.79
				C69.11,440.518,74,423.947,74,423.947z"/>
			<path style="fill:#F3E5D9;" d="M62,332.447l6.31,2.5c-0.97,0.54-1.24,13.77-1.19,30.5H67h-5V332.447z"/>
			<path style="fill:#ADBDBD;" d="M68,517.447c0.5,34-8.53,19.5-8.53,19.5c-0.49-4.92-0.41-13.66-0.08-23.3
				c3.3,0.26,6.22,0.59,8.57,0.899L68,517.447z"/>
			<path style="fill:#BAC0BB;" d="M68,486.447v8l-0.23,7l0.19,13.1c-2.35-0.31-5.27-0.64-8.57-0.899
				c0.32-9.09,0.86-18.97,1.37-27.22l0.24,0.02H68z"/>
		</g>
		<g>
		</g>
	</g>
</g>
</svg>
